<mxfile host="app.diagrams.net" modified="2021-03-22T08:26:19.832Z" agent="5.0 (Windows NT 10.0; Win64; x64) AppleWebKit/537.36 (KHTML, like Gecko) Chrome/89.0.4389.90 Safari/537.36" etag="_jDXEsPhsewcZr0uR9BN" version="14.4.6" type="github">
  <diagram id="C5RBs43oDa-KdzZeNtuy" name="Page-1">
    <mxGraphModel dx="1422" dy="794" grid="1" gridSize="10" guides="1" tooltips="1" connect="1" arrows="1" fold="1" page="1" pageScale="1" pageWidth="827" pageHeight="1169" math="0" shadow="0">
      <root>
        <mxCell id="WIyWlLk6GJQsqaUBKTNV-0" />
        <mxCell id="WIyWlLk6GJQsqaUBKTNV-1" parent="WIyWlLk6GJQsqaUBKTNV-0" />
        <mxCell id="x7fOQHd4zGTe9LRD0eGf-14" value="" style="rounded=0;whiteSpace=wrap;html=1;fillColor=#f8cecc;strokeColor=#b85450;" vertex="1" parent="WIyWlLk6GJQsqaUBKTNV-1">
          <mxGeometry x="180" y="890" width="380" height="140" as="geometry" />
        </mxCell>
        <mxCell id="x7fOQHd4zGTe9LRD0eGf-13" value="" style="rounded=0;whiteSpace=wrap;html=1;fillColor=#d5e8d4;strokeColor=#82b366;" vertex="1" parent="WIyWlLk6GJQsqaUBKTNV-1">
          <mxGeometry x="180" y="520" width="380" height="300" as="geometry" />
        </mxCell>
        <mxCell id="x7fOQHd4zGTe9LRD0eGf-12" value="" style="rounded=0;whiteSpace=wrap;html=1;fillColor=#dae8fc;strokeColor=#6c8ebf;" vertex="1" parent="WIyWlLk6GJQsqaUBKTNV-1">
          <mxGeometry x="180" width="380" height="460" as="geometry" />
        </mxCell>
        <mxCell id="x7fOQHd4zGTe9LRD0eGf-20" style="edgeStyle=orthogonalEdgeStyle;rounded=0;orthogonalLoop=1;jettySize=auto;html=1;" edge="1" parent="WIyWlLk6GJQsqaUBKTNV-1" source="WIyWlLk6GJQsqaUBKTNV-7" target="x7fOQHd4zGTe9LRD0eGf-19">
          <mxGeometry relative="1" as="geometry" />
        </mxCell>
        <mxCell id="WIyWlLk6GJQsqaUBKTNV-7" value="&lt;font style=&quot;font-size: 18px&quot;&gt;Code schreiben&lt;/font&gt;" style="rounded=1;whiteSpace=wrap;html=1;fontSize=12;glass=0;strokeWidth=1;shadow=0;fillColor=#fff2cc;strokeColor=#d6b656;" parent="WIyWlLk6GJQsqaUBKTNV-1" vertex="1">
          <mxGeometry x="290" y="20" width="160" height="80" as="geometry" />
        </mxCell>
        <mxCell id="x7fOQHd4zGTe9LRD0eGf-11" style="edgeStyle=orthogonalEdgeStyle;rounded=0;orthogonalLoop=1;jettySize=auto;html=1;" edge="1" parent="WIyWlLk6GJQsqaUBKTNV-1" source="x7fOQHd4zGTe9LRD0eGf-1" target="x7fOQHd4zGTe9LRD0eGf-2">
          <mxGeometry relative="1" as="geometry" />
        </mxCell>
        <mxCell id="x7fOQHd4zGTe9LRD0eGf-1" value="&lt;font style=&quot;font-size: 18px&quot;&gt;Code pushen&lt;/font&gt;" style="rounded=1;whiteSpace=wrap;html=1;fontSize=12;glass=0;strokeWidth=1;shadow=0;fillColor=#fff2cc;strokeColor=#d6b656;" vertex="1" parent="WIyWlLk6GJQsqaUBKTNV-1">
          <mxGeometry x="290" y="350" width="160" height="80" as="geometry" />
        </mxCell>
        <mxCell id="x7fOQHd4zGTe9LRD0eGf-7" style="edgeStyle=orthogonalEdgeStyle;rounded=0;orthogonalLoop=1;jettySize=auto;html=1;entryX=0.5;entryY=0;entryDx=0;entryDy=0;" edge="1" parent="WIyWlLk6GJQsqaUBKTNV-1" source="x7fOQHd4zGTe9LRD0eGf-2" target="x7fOQHd4zGTe9LRD0eGf-6">
          <mxGeometry relative="1" as="geometry" />
        </mxCell>
        <mxCell id="x7fOQHd4zGTe9LRD0eGf-2" value="&lt;font style=&quot;font-size: 18px&quot;&gt;Code wird gemergt&lt;/font&gt;" style="rounded=1;whiteSpace=wrap;html=1;fontSize=12;glass=0;strokeWidth=1;shadow=0;fillColor=#fff2cc;strokeColor=#d6b656;" vertex="1" parent="WIyWlLk6GJQsqaUBKTNV-1">
          <mxGeometry x="290" y="550" width="160" height="80" as="geometry" />
        </mxCell>
        <mxCell id="x7fOQHd4zGTe9LRD0eGf-9" style="edgeStyle=orthogonalEdgeStyle;rounded=0;orthogonalLoop=1;jettySize=auto;html=1;entryX=0.5;entryY=0;entryDx=0;entryDy=0;" edge="1" parent="WIyWlLk6GJQsqaUBKTNV-1" source="x7fOQHd4zGTe9LRD0eGf-6" target="x7fOQHd4zGTe9LRD0eGf-8">
          <mxGeometry relative="1" as="geometry" />
        </mxCell>
        <mxCell id="x7fOQHd4zGTe9LRD0eGf-6" value="&lt;font style=&quot;font-size: 18px&quot;&gt;Preview wird erstellt&lt;/font&gt;" style="rounded=1;whiteSpace=wrap;html=1;fontSize=12;glass=0;strokeWidth=1;shadow=0;fillColor=#fff2cc;strokeColor=#d6b656;" vertex="1" parent="WIyWlLk6GJQsqaUBKTNV-1">
          <mxGeometry x="290" y="720" width="160" height="80" as="geometry" />
        </mxCell>
        <mxCell id="x7fOQHd4zGTe9LRD0eGf-8" value="&lt;font style=&quot;font-size: 18px&quot;&gt;Dashboard wird deployt&lt;/font&gt;" style="rounded=1;whiteSpace=wrap;html=1;fontSize=12;glass=0;strokeWidth=1;shadow=0;fillColor=#fff2cc;strokeColor=#d6b656;" vertex="1" parent="WIyWlLk6GJQsqaUBKTNV-1">
          <mxGeometry x="290" y="920" width="160" height="80" as="geometry" />
        </mxCell>
        <mxCell id="x7fOQHd4zGTe9LRD0eGf-15" value="&lt;font style=&quot;font-size: 18px&quot;&gt;Entwicklerworkflow&lt;/font&gt;" style="text;html=1;align=center;verticalAlign=middle;resizable=0;points=[];autosize=1;" vertex="1" parent="WIyWlLk6GJQsqaUBKTNV-1">
          <mxGeometry x="180" width="170" height="20" as="geometry" />
        </mxCell>
        <mxCell id="x7fOQHd4zGTe9LRD0eGf-16" value="&lt;font style=&quot;font-size: 18px&quot;&gt;CI&lt;/font&gt;" style="text;html=1;align=center;verticalAlign=middle;resizable=0;points=[];autosize=1;" vertex="1" parent="WIyWlLk6GJQsqaUBKTNV-1">
          <mxGeometry x="190" y="520" width="30" height="20" as="geometry" />
        </mxCell>
        <mxCell id="x7fOQHd4zGTe9LRD0eGf-17" value="&lt;font style=&quot;font-size: 18px&quot;&gt;CD&lt;/font&gt;" style="text;html=1;align=center;verticalAlign=middle;resizable=0;points=[];autosize=1;" vertex="1" parent="WIyWlLk6GJQsqaUBKTNV-1">
          <mxGeometry x="190" y="900" width="40" height="20" as="geometry" />
        </mxCell>
        <mxCell id="x7fOQHd4zGTe9LRD0eGf-21" style="edgeStyle=orthogonalEdgeStyle;rounded=0;orthogonalLoop=1;jettySize=auto;html=1;" edge="1" parent="WIyWlLk6GJQsqaUBKTNV-1" source="x7fOQHd4zGTe9LRD0eGf-19" target="x7fOQHd4zGTe9LRD0eGf-1">
          <mxGeometry relative="1" as="geometry" />
        </mxCell>
        <mxCell id="x7fOQHd4zGTe9LRD0eGf-19" value="&lt;font style=&quot;font-size: 18px&quot;&gt;Code commiten&lt;/font&gt;" style="rounded=1;whiteSpace=wrap;html=1;fontSize=12;glass=0;strokeWidth=1;shadow=0;fillColor=#fff2cc;strokeColor=#d6b656;" vertex="1" parent="WIyWlLk6GJQsqaUBKTNV-1">
          <mxGeometry x="290" y="180" width="160" height="80" as="geometry" />
        </mxCell>
      </root>
    </mxGraphModel>
  </diagram>
</mxfile>
